<?xml version="1.0" encoding="UTF-8" standalone="no"?>
<svg
   id="Layer_1"
   data-name="Layer 1"
   viewBox="0 0 116.8 122.88"
   version="1.1"
   sodipodi:docname="flagSmall.svg"
   inkscape:version="1.1.2 (0a00cf5339, 2022-02-04)"
   xmlns:inkscape="http://www.inkscape.org/namespaces/inkscape"
   xmlns:sodipodi="http://sodipodi.sourceforge.net/DTD/sodipodi-0.dtd"
   xmlns="http://www.w3.org/2000/svg"
   xmlns:svg="http://www.w3.org/2000/svg"
   xmlns:rdf="http://www.w3.org/1999/02/22-rdf-syntax-ns#"
   xmlns:cc="http://creativecommons.org/ns#"
   xmlns:dc="http://purl.org/dc/elements/1.1/">
  <sodipodi:namedview
     id="namedview225"
     pagecolor="#ffffff"
     bordercolor="#666666"
     borderopacity="1.0"
     inkscape:pageshadow="2"
     inkscape:pageopacity="0.0"
     inkscape:pagecheckerboard="0"
     showgrid="false"
     inkscape:zoom="4.9194338"
     inkscape:cx="-74.093893"
     inkscape:cy="27.340545"
     inkscape:window-width="3380"
     inkscape:window-height="1414"
     inkscape:window-x="60"
     inkscape:window-y="0"
     inkscape:window-maximized="1"
     inkscape:current-layer="Layer_1" />
  <defs
     id="defs216">
    <style
       id="style214">.cls-1{fill:#e21b1b;}.cls-2{fill:#1a1a1a;}</style>
    <filter
       inkscape:collect="always"
       style="color-interpolation-filters:sRGB"
       id="filter1278"
       x="-0.040582386"
       y="-0.054427615"
       width="1.0811661"
       height="1.1091564">
      <feGaussianBlur
         inkscape:collect="always"
         stdDeviation="0.010054555"
         id="feGaussianBlur1280" />
    </filter>
  </defs>
  <title
     id="title218">red-flag</title>
  <path
     class="cls-1"
     d="M 43.999098,64.732462 42.145886,46.4889 a 1.3786875,1.3786875 0 0 1 0.695756,-1.340213 c 8.721,-5.578875 12.911569,-3.315262 16.771894,-1.2312 3.05235,1.648013 5.841787,3.15495 11.879156,-1.97505 a 1.4267812,1.4267812 0 0 1 1.987875,0.141075 1.3530375,1.3530375 0 0 1 0.320625,0.775913 l 1.853213,18.240356 a 1.3562437,1.3562437 0 0 1 -0.442463,1.144631 c -6.986419,6.3612 -11.221875,4.219425 -15.582375,2.010319 -3.530081,-1.792294 -7.182,-3.635887 -13.318762,1.452431 A 1.4331937,1.4331937 0 0 1 44.319723,65.54685 1.3658625,1.3658625 0 0 1 43.999098,64.732462 Z"
     id="path220"
     style="opacity:1;mix-blend-mode:darken;fill:#ffffff;fill-opacity:1;stroke:#000000;stroke-width:2.67274;stroke-miterlimit:4;stroke-dasharray:none;stroke-dashoffset:0;stroke-opacity:1;filter:url(#filter1278)"
     transform="matrix(0.91524445,0,0,0.6118022,4.6648495,16.097624)" />
  <path
     class="cls-2"
     d="m 43.991372,42.296716 1.585789,30.605289 a 1.1058796,2.1386455 0 1 1 -2.200524,0.419037 l -1.580975,-30.50596 a 1.629126,3.1505445 0 1 1 2.19571,-0.518366 z"
     id="path222"
     style="fill:#000000;stroke-width:2.85699;stroke-miterlimit:4;stroke-dasharray:none" />
  <metadata
     id="metadata842">
    <rdf:RDF>
      <cc:Work
         rdf:about="">
        <dc:title>red-flag</dc:title>
      </cc:Work>
    </rdf:RDF>
  </metadata>
</svg>
